<?xml version="1.0" standalone="no"?>
<!DOCTYPE svg PUBLIC "-//W3C//DTD SVG 20010904//EN"
 "http://www.w3.org/TR/2001/REC-SVG-20010904/DTD/svg10.dtd">
<svg version="1.0" xmlns="http://www.w3.org/2000/svg"
 width="48.000000pt" height="48.000000pt" viewBox="0 0 48.000000 48.000000"
 preserveAspectRatio="xMidYMid meet">

<g transform="translate(0.000000,48.000000) scale(0.100000,-0.100000)"
fill="#000000" stroke="none">
<path d="M133 413 l-93 -56 0 -64 0 -64 58 32 c31 18 90 52 130 76 41 24 80
43 87 43 40 0 10 -25 -123 -101 -111 -64 -148 -90 -150 -107 -2 -12 -1 -22 3
-22 7 0 355 199 368 210 5 4 -16 22 -47 39 l-56 32 -92 -54 c-140 -82 -138
-81 -138 -60 0 12 30 35 95 71 52 30 95 57 95 62 0 8 -26 21 -38 19 -4 -1 -49
-26 -99 -56z"/>
<path d="M253 232 c-100 -59 -184 -109 -187 -112 -3 -3 35 -29 84 -58 l90 -52
100 57 100 58 0 63 c0 34 -2 62 -5 62 -3 0 -58 -30 -121 -67 -108 -62 -114
-67 -93 -78 19 -11 31 -7 96 31 40 24 76 44 78 44 3 0 5 -8 5 -17 0 -12 -26
-32 -73 -58 -39 -22 -77 -41 -84 -43 -6 -2 -32 10 -58 26 l-47 29 151 88 c129
74 151 91 151 111 0 13 -1 24 -2 23 -2 -1 -85 -49 -185 -107z"/>
</g>
</svg>
